<?xml version="1.0" encoding="UTF-8"?>
<svg xmlns="http://www.w3.org/2000/svg" xmlns:xlink="http://www.w3.org/1999/xlink" width="32px" height="32px" viewBox="0 0 32 32" version="1.1">
<g id="surface1">
<path style=" stroke:none;fill-rule:nonzero;fill:rgb(1.960784%,1.960784%,2.352941%);fill-opacity:1;" d="M 9.839844 -0.015625 C 9.9375 -0.015625 10.039062 -0.015625 10.136719 -0.015625 C 10.722656 -0.0117188 11.308594 0.00390625 11.894531 0.0195312 C 13.476562 0.0625 15.0625 0.0859375 16.644531 0.105469 C 17.160156 0.113281 17.679688 0.121094 18.199219 0.128906 C 19.621094 0.148438 21.046875 0.171875 22.46875 0.191406 C 22.539062 0.191406 22.539062 0.191406 22.609375 0.191406 C 22.65625 0.195312 22.703125 0.195312 22.75 0.195312 C 23.519531 0.207031 24.292969 0.214844 25.0625 0.226562 C 25.578125 0.234375 26.09375 0.242188 26.605469 0.25 C 26.925781 0.253906 27.246094 0.257812 27.5625 0.265625 C 27.710938 0.265625 27.859375 0.269531 28.007812 0.269531 C 28.207031 0.273438 28.410156 0.277344 28.609375 0.277344 C 28.667969 0.28125 28.730469 0.28125 28.789062 0.28125 C 29.019531 0.285156 29.207031 0.292969 29.425781 0.355469 C 30.039062 1.390625 29.425781 3.644531 29.007812 4.714844 C 28.980469 4.785156 28.957031 4.851562 28.929688 4.925781 C 28.71875 5.417969 28.425781 5.859375 28.105469 6.304688 C 28.070312 6.355469 28.039062 6.402344 28.003906 6.449219 C 27.726562 6.824219 27.375 7.140625 27.015625 7.460938 C 26.929688 7.535156 26.847656 7.613281 26.761719 7.691406 C 26.054688 8.320312 25.175781 8.742188 24.199219 9 C 24.15625 9.011719 24.109375 9.023438 24.066406 9.035156 C 23.167969 9.253906 22.242188 9.269531 21.316406 9.25 C 21.207031 9.25 21.101562 9.246094 20.992188 9.246094 C 20.765625 9.242188 20.535156 9.238281 20.308594 9.234375 C 19.953125 9.230469 19.597656 9.226562 19.242188 9.222656 C 19.125 9.21875 19.003906 9.21875 18.886719 9.214844 C 18.828125 9.214844 18.769531 9.214844 18.707031 9.214844 C 18.414062 9.210938 18.125 9.207031 17.832031 9.203125 C 16.667969 9.1875 16.667969 9.1875 15.503906 9.175781 C 15.371094 9.175781 15.242188 9.175781 15.109375 9.171875 C 14.253906 9.160156 13.464844 9.179688 12.757812 9.648438 C 12.464844 9.839844 12.464844 9.839844 12.3125 9.839844 C 12.3125 9.878906 12.3125 9.917969 12.3125 9.960938 C 12.265625 9.960938 12.222656 9.960938 12.175781 9.960938 C 12.15625 9.992188 12.136719 10.027344 12.117188 10.058594 C 12.035156 10.195312 12.035156 10.195312 11.941406 10.328125 C 11.558594 10.863281 11.378906 11.445312 11.300781 12.066406 C 11.296875 12.113281 11.289062 12.160156 11.28125 12.210938 C 11.277344 12.261719 11.277344 12.261719 11.269531 12.316406 C 11.359375 12.316406 11.359375 12.316406 11.449219 12.316406 C 14.273438 12.308594 17.097656 12.3125 19.921875 12.339844 C 20.109375 12.34375 20.292969 12.34375 20.480469 12.347656 C 20.773438 12.347656 21.0625 12.351562 21.355469 12.355469 C 21.460938 12.355469 21.566406 12.359375 21.675781 12.359375 C 21.820312 12.359375 21.964844 12.363281 22.109375 12.363281 C 22.191406 12.363281 22.273438 12.367188 22.359375 12.367188 C 22.539062 12.375 22.539062 12.375 22.609375 12.433594 C 22.617188 12.515625 22.617188 12.59375 22.621094 12.675781 C 22.621094 12.726562 22.621094 12.777344 22.621094 12.832031 C 22.621094 12.914062 22.621094 12.914062 22.621094 13 C 22.625 13.058594 22.625 13.117188 22.625 13.175781 C 22.625 13.300781 22.625 13.421875 22.625 13.546875 C 22.625 13.730469 22.628906 13.917969 22.628906 14.101562 C 22.636719 15 22.546875 15.824219 22.179688 16.675781 C 22.15625 16.722656 22.136719 16.773438 22.113281 16.824219 C 21.800781 17.539062 21.4375 18.316406 20.871094 18.917969 C 20.824219 18.917969 20.777344 18.917969 20.730469 18.917969 C 20.714844 18.949219 20.695312 18.984375 20.679688 19.019531 C 19.988281 20.09375 18.558594 20.753906 17.253906 21.15625 C 17.191406 21.175781 17.132812 21.195312 17.070312 21.214844 C 16.429688 21.410156 15.753906 21.40625 15.082031 21.425781 C 14.996094 21.429688 14.90625 21.429688 14.816406 21.433594 C 13.632812 21.464844 12.453125 21.457031 11.269531 21.453125 C 11.273438 21.527344 11.273438 21.605469 11.277344 21.6875 C 11.285156 21.980469 11.292969 22.273438 11.304688 22.566406 C 11.308594 22.691406 11.3125 22.820312 11.316406 22.945312 C 11.378906 24.925781 11.265625 26.820312 10.085938 28.582031 C 10.046875 28.640625 10.011719 28.699219 9.96875 28.757812 C 9.523438 29.386719 8.769531 30.339844 7.929688 30.585938 C 7.929688 30.625 7.929688 30.664062 7.929688 30.703125 C 6.523438 31.605469 4.871094 31.816406 3.15625 31.855469 C 2.984375 31.859375 2.816406 31.863281 2.644531 31.871094 C 2.539062 31.871094 2.429688 31.875 2.324219 31.878906 C 2.246094 31.878906 2.246094 31.878906 2.171875 31.882812 C 2.050781 31.882812 1.929688 31.882812 1.808594 31.882812 C 1.664062 31.757812 1.722656 31.488281 1.71875 31.316406 C 1.71875 31.261719 1.714844 31.203125 1.714844 31.148438 C 1.710938 30.957031 1.707031 30.765625 1.703125 30.574219 C 1.699219 30.503906 1.699219 30.4375 1.699219 30.367188 C 1.652344 28.132812 1.644531 25.898438 1.632812 23.664062 C 1.628906 23.109375 1.628906 22.554688 1.625 21.996094 C 1.621094 21.457031 1.617188 20.914062 1.613281 20.375 C 1.613281 20.261719 1.613281 20.144531 1.613281 20.03125 C 1.601562 18.621094 1.597656 17.207031 1.601562 15.792969 C 1.925781 15.714844 2.0625 15.789062 2.363281 15.910156 C 2.363281 15.949219 2.363281 15.988281 2.363281 16.03125 C 2.417969 16.042969 2.46875 16.058594 2.519531 16.074219 C 3.136719 16.308594 3.597656 16.894531 3.855469 17.40625 C 4.1875 18.144531 4.183594 18.851562 4.1875 19.628906 C 4.1875 19.738281 4.191406 19.847656 4.191406 19.953125 C 4.191406 20.246094 4.195312 20.539062 4.195312 20.832031 C 4.195312 21.136719 4.199219 21.441406 4.199219 21.75 C 4.203125 22.328125 4.207031 22.90625 4.210938 23.484375 C 4.214844 24.144531 4.21875 24.800781 4.222656 25.460938 C 4.230469 26.816406 4.238281 28.171875 4.242188 29.523438 C 4.453125 29.480469 4.664062 29.433594 4.875 29.390625 C 4.933594 29.378906 4.992188 29.363281 5.050781 29.351562 C 5.957031 29.152344 6.734375 28.757812 7.316406 28.125 C 7.355469 28.082031 7.398438 28.039062 7.445312 27.992188 C 7.488281 27.992188 7.535156 27.992188 7.582031 27.992188 C 7.601562 27.949219 7.617188 27.90625 7.636719 27.863281 C 7.722656 27.699219 7.722656 27.699219 7.851562 27.570312 C 8.027344 27.375 8.136719 27.179688 8.246094 26.953125 C 8.269531 26.914062 8.289062 26.871094 8.3125 26.828125 C 8.683594 26.074219 8.777344 25.355469 8.769531 24.546875 C 8.769531 24.488281 8.769531 24.429688 8.769531 24.371094 C 8.769531 24.246094 8.769531 24.121094 8.769531 23.996094 C 8.765625 23.800781 8.765625 23.601562 8.765625 23.40625 C 8.765625 22.847656 8.761719 22.289062 8.757812 21.726562 C 8.757812 21.386719 8.753906 21.042969 8.753906 20.699219 C 8.753906 20.566406 8.753906 20.4375 8.753906 20.308594 C 8.75 20.125 8.75 19.941406 8.75 19.761719 C 8.75 19.679688 8.75 19.679688 8.75 19.597656 C 8.75 19.546875 8.75 19.5 8.75 19.449219 C 8.75 19.382812 8.75 19.382812 8.75 19.316406 C 8.765625 19.210938 8.765625 19.210938 8.90625 19.09375 C 9.101562 19.082031 9.289062 19.082031 9.484375 19.082031 C 9.574219 19.082031 9.574219 19.082031 9.667969 19.082031 C 9.796875 19.082031 9.929688 19.085938 10.058594 19.085938 C 10.269531 19.085938 10.476562 19.085938 10.683594 19.089844 C 11.203125 19.089844 11.71875 19.09375 12.238281 19.09375 C 12.671875 19.097656 13.109375 19.097656 13.542969 19.101562 C 13.75 19.101562 13.953125 19.101562 14.15625 19.105469 C 15.773438 19.113281 17.195312 18.949219 18.417969 17.960938 C 18.761719 17.65625 19.027344 17.339844 19.269531 16.972656 C 19.300781 16.925781 19.332031 16.878906 19.363281 16.832031 C 19.714844 16.277344 19.9375 15.691406 20.039062 15.070312 C 20.050781 14.996094 20.0625 14.921875 20.078125 14.84375 C 20.085938 14.789062 20.09375 14.730469 20.105469 14.675781 C 20.058594 14.675781 20.011719 14.675781 19.964844 14.675781 C 18.820312 14.675781 17.679688 14.675781 16.539062 14.675781 C 15.988281 14.675781 15.433594 14.679688 14.882812 14.679688 C 14.402344 14.679688 13.917969 14.679688 13.4375 14.679688 C 13.179688 14.679688 12.925781 14.679688 12.671875 14.679688 C 11.636719 14.683594 10.601562 14.675781 9.566406 14.648438 C 9.480469 14.648438 9.394531 14.644531 9.304688 14.640625 C 8.710938 14.625 8.15625 14.578125 7.582031 14.4375 C 7.515625 14.421875 7.445312 14.40625 7.375 14.390625 C 5.359375 13.878906 3.714844 12.605469 2.699219 11.070312 C 1.46875 9.109375 1.257812 6.898438 2.015625 4.773438 C 2.203125 4.300781 2.4375 3.855469 2.714844 3.417969 C 2.757812 3.417969 2.804688 3.417969 2.851562 3.417969 C 2.855469 3.378906 2.863281 3.335938 2.867188 3.296875 C 2.9375 3.074219 3.074219 2.910156 3.234375 2.730469 C 3.265625 2.695312 3.296875 2.65625 3.328125 2.621094 C 3.609375 2.300781 3.898438 1.980469 4.242188 1.710938 C 4.289062 1.710938 4.335938 1.710938 4.382812 1.710938 C 4.417969 1.621094 4.417969 1.621094 4.453125 1.53125 C 4.691406 1.355469 4.957031 1.210938 5.21875 1.0625 C 5.257812 1.039062 5.296875 1.015625 5.335938 0.992188 C 5.828125 0.714844 6.320312 0.492188 6.882812 0.332031 C 6.953125 0.3125 6.953125 0.3125 7.023438 0.292969 C 7.957031 0.0429688 8.867188 -0.0273438 9.839844 -0.015625 Z M 5.613281 3.707031 C 4.460938 4.886719 3.910156 6.3125 4.035156 7.839844 C 4.160156 8.914062 4.699219 10.042969 5.566406 10.84375 C 5.609375 10.84375 5.65625 10.84375 5.703125 10.84375 C 5.703125 10.882812 5.703125 10.921875 5.703125 10.960938 C 5.875 11.113281 6.070312 11.242188 6.261719 11.375 C 6.3125 11.410156 6.363281 11.445312 6.417969 11.480469 C 7.105469 11.917969 7.914062 12.171875 8.765625 12.257812 C 8.765625 12.210938 8.769531 12.160156 8.769531 12.113281 C 8.824219 11.167969 9.101562 10.332031 9.601562 9.488281 C 9.65625 9.394531 9.65625 9.394531 9.710938 9.296875 C 10.117188 8.664062 10.695312 8.117188 11.410156 7.71875 C 11.464844 7.6875 11.519531 7.652344 11.578125 7.617188 C 12.070312 7.335938 12.578125 7.152344 13.148438 7.011719 C 13.195312 7 13.238281 6.992188 13.285156 6.980469 C 13.90625 6.851562 14.542969 6.878906 15.179688 6.882812 C 15.3125 6.882812 15.445312 6.886719 15.578125 6.886719 C 16.84375 6.890625 18.113281 6.910156 19.378906 6.933594 C 20.132812 6.945312 20.886719 6.957031 21.640625 6.960938 C 21.707031 6.960938 21.773438 6.960938 21.84375 6.960938 C 23.273438 6.964844 24.394531 6.597656 25.445312 5.757812 C 26.171875 5.113281 26.589844 4.273438 26.851562 3.417969 C 26.863281 3.382812 26.875 3.347656 26.890625 3.3125 C 26.925781 3.164062 26.929688 3.027344 26.925781 2.871094 C 26.925781 2.792969 26.925781 2.792969 26.925781 2.714844 C 26.921875 2.671875 26.921875 2.632812 26.921875 2.59375 C 25.59375 2.53125 24.261719 2.507812 22.929688 2.484375 C 22.738281 2.480469 22.542969 2.476562 22.347656 2.472656 C 19.984375 2.425781 17.625 2.390625 15.261719 2.355469 C 15 2.351562 14.734375 2.347656 14.472656 2.34375 C 12.238281 2.308594 12.238281 2.308594 10.003906 2.289062 C 9.867188 2.289062 9.726562 2.289062 9.589844 2.289062 C 8.042969 2.285156 6.695312 2.742188 5.613281 3.707031 Z M 5.613281 3.707031 "/>
<path style=" stroke:none;fill-rule:nonzero;fill:rgb(30.980393%,30.588236%,32.156864%);fill-opacity:1;" d="M 16.765625 18.917969 C 16.765625 18.957031 16.765625 18.996094 16.765625 19.035156 C 15.90625 19.242188 15.074219 19.234375 14.191406 19.230469 C 14.054688 19.230469 13.917969 19.230469 13.78125 19.226562 C 13.285156 19.226562 12.785156 19.226562 12.285156 19.222656 C 11.171875 19.21875 10.054688 19.214844 8.90625 19.210938 C 8.90625 21.15625 8.90625 23.101562 8.90625 25.105469 C 8.882812 25.105469 8.859375 25.105469 8.835938 25.105469 C 8.824219 24.339844 8.8125 23.574219 8.800781 22.804688 C 8.796875 22.449219 8.789062 22.09375 8.785156 21.738281 C 8.777344 21.394531 8.773438 21.050781 8.769531 20.710938 C 8.769531 20.578125 8.765625 20.445312 8.761719 20.316406 C 8.761719 20.132812 8.757812 19.949219 8.753906 19.765625 C 8.753906 19.710938 8.753906 19.65625 8.753906 19.601562 C 8.75 19.550781 8.75 19.5 8.75 19.449219 C 8.75 19.40625 8.75 19.363281 8.75 19.316406 C 8.765625 19.210938 8.765625 19.210938 8.90625 19.09375 C 9.101562 19.082031 9.289062 19.082031 9.484375 19.082031 C 9.574219 19.082031 9.574219 19.082031 9.667969 19.082031 C 9.796875 19.082031 9.929688 19.085938 10.058594 19.085938 C 10.269531 19.085938 10.476562 19.085938 10.683594 19.089844 C 11.203125 19.089844 11.71875 19.09375 12.238281 19.09375 C 12.671875 19.097656 13.109375 19.097656 13.542969 19.101562 C 13.75 19.101562 13.953125 19.101562 14.15625 19.105469 C 15.035156 19.109375 15.910156 18.917969 16.765625 18.917969 Z M 16.765625 18.917969 "/>
<path style=" stroke:none;fill-rule:nonzero;fill:rgb(25.490198%,24.705882%,25.490198%);fill-opacity:1;" d="M 19.617188 2.417969 C 20.363281 2.414062 21.105469 2.414062 21.851562 2.414062 C 22.195312 2.414062 22.542969 2.414062 22.886719 2.410156 C 25.832031 2.40625 25.832031 2.40625 27.0625 2.476562 C 27.007812 3.285156 27.007812 3.285156 26.851562 3.417969 C 26.875 3.144531 26.898438 2.875 26.921875 2.59375 C 26.847656 2.59375 26.769531 2.59375 26.691406 2.59375 C 25.332031 2.601562 23.96875 2.566406 22.609375 2.539062 C 22.269531 2.53125 21.933594 2.523438 21.59375 2.515625 C 20.9375 2.503906 20.277344 2.488281 19.617188 2.476562 C 19.617188 2.457031 19.617188 2.4375 19.617188 2.417969 Z M 19.617188 2.417969 "/>
<path style=" stroke:none;fill-rule:nonzero;fill:rgb(15.686275%,15.294118%,16.470589%);fill-opacity:1;" d="M 1.601562 15.792969 C 1.621094 15.792969 1.644531 15.792969 1.667969 15.792969 C 1.671875 15.835938 1.679688 15.875 1.683594 15.917969 C 1.6875 15.972656 1.695312 16.027344 1.699219 16.082031 C 1.707031 16.132812 1.710938 16.1875 1.71875 16.242188 C 1.730469 16.382812 1.730469 16.382812 1.808594 16.5 C 1.816406 16.597656 1.816406 16.695312 1.816406 16.789062 C 1.816406 16.851562 1.816406 16.910156 1.816406 16.972656 C 1.816406 17.039062 1.816406 17.105469 1.816406 17.175781 C 1.816406 17.242188 1.816406 17.3125 1.816406 17.382812 C 1.816406 17.605469 1.816406 17.828125 1.816406 18.050781 C 1.816406 18.125 1.816406 18.203125 1.816406 18.277344 C 1.816406 19.355469 1.804688 20.433594 1.738281 21.511719 C 1.714844 21.511719 1.691406 21.511719 1.667969 21.511719 C 1.65625 20.921875 1.644531 20.332031 1.636719 19.746094 C 1.632812 19.703125 1.632812 19.660156 1.632812 19.613281 C 1.609375 18.339844 1.589844 17.066406 1.601562 15.792969 Z M 1.601562 15.792969 "/>
<path style=" stroke:none;fill-rule:nonzero;fill:rgb(34.901962%,34.901962%,34.901962%);fill-opacity:1;" d="M 15.203125 6.816406 C 15.335938 6.820312 15.464844 6.820312 15.59375 6.820312 C 16.03125 6.824219 16.46875 6.828125 16.90625 6.835938 C 17.078125 6.839844 17.25 6.839844 17.421875 6.84375 C 18.523438 6.859375 19.628906 6.875 20.730469 6.894531 C 20.730469 6.914062 20.730469 6.933594 20.730469 6.953125 C 20.644531 6.953125 20.5625 6.953125 20.472656 6.953125 C 19.675781 6.957031 18.878906 6.960938 18.078125 6.96875 C 17.667969 6.96875 17.257812 6.972656 16.847656 6.972656 C 16.453125 6.976562 16.054688 6.976562 15.660156 6.980469 C 15.507812 6.980469 15.359375 6.984375 15.207031 6.984375 C 14.179688 6.976562 14.179688 6.976562 13.175781 7.152344 C 12.976562 7.195312 12.796875 7.195312 12.589844 7.191406 C 13.171875 6.699219 14.453125 6.808594 15.203125 6.816406 Z M 15.203125 6.816406 "/>
<path style=" stroke:none;fill-rule:nonzero;fill:rgb(36.862746%,36.862746%,37.254903%);fill-opacity:1;" d="M 29.355469 0.355469 C 29.535156 0.503906 29.511719 0.566406 29.515625 0.777344 C 29.515625 0.839844 29.515625 0.902344 29.515625 0.96875 C 29.515625 1.039062 29.515625 1.109375 29.511719 1.179688 C 29.511719 1.25 29.511719 1.320312 29.511719 1.394531 C 29.496094 2.625 29.445312 3.859375 28.871094 5.007812 C 28.847656 5.007812 28.824219 5.007812 28.800781 5.007812 C 28.78125 4.617188 28.78125 4.617188 28.9375 4.417969 C 28.976562 4.300781 28.976562 4.300781 28.996094 4.171875 C 29.003906 4.125 29.011719 4.078125 29.023438 4.03125 C 29.03125 3.980469 29.039062 3.933594 29.046875 3.882812 C 29.140625 3.367188 29.140625 3.367188 29.21875 3.300781 C 29.316406 2.671875 29.308594 2.027344 29.324219 1.394531 C 29.328125 1.292969 29.332031 1.191406 29.335938 1.089844 C 29.34375 0.84375 29.351562 0.597656 29.355469 0.355469 Z M 29.355469 0.355469 "/>
<path style=" stroke:none;fill-rule:nonzero;fill:rgb(23.529412%,22.352941%,23.921569%);fill-opacity:1;" d="M 11.339844 10.960938 C 11.386719 10.960938 11.429688 10.960938 11.476562 10.960938 C 11.414062 11.414062 11.339844 11.863281 11.269531 12.316406 C 12.53125 12.316406 13.792969 12.316406 15.09375 12.316406 C 15.09375 12.355469 15.09375 12.394531 15.09375 12.433594 C 14.675781 12.4375 14.253906 12.4375 13.832031 12.4375 C 13.691406 12.4375 13.546875 12.4375 13.40625 12.4375 C 11.882812 12.445312 11.882812 12.445312 11.199219 12.375 C 11.195312 12.21875 11.195312 12.058594 11.191406 11.902344 C 11.191406 11.855469 11.1875 11.8125 11.1875 11.765625 C 11.183594 11.472656 11.230469 11.238281 11.339844 10.960938 Z M 11.339844 10.960938 "/>
<path style=" stroke:none;fill-rule:nonzero;fill:rgb(20%,20%,20.784314%);fill-opacity:1;" d="M 11.199219 21.628906 C 11.222656 21.628906 11.246094 21.628906 11.269531 21.628906 C 11.28125 21.972656 11.292969 22.320312 11.304688 22.667969 C 11.308594 22.785156 11.3125 22.902344 11.316406 23.019531 C 11.386719 25.101562 11.386719 25.101562 11.199219 25.753906 C 11.175781 25.753906 11.152344 25.753906 11.128906 25.753906 C 11.128906 25.328125 11.128906 24.898438 11.125 24.472656 C 11.125 24.328125 11.125 24.183594 11.125 24.039062 C 11.121094 23.234375 11.125 22.433594 11.199219 21.628906 Z M 11.199219 21.628906 "/>
<path style=" stroke:none;fill-rule:nonzero;fill:rgb(20.784314%,20.784314%,21.960784%);fill-opacity:1;" d="M 22.539062 12.613281 C 22.5625 12.613281 22.585938 12.613281 22.609375 12.613281 C 22.613281 12.953125 22.617188 13.296875 22.621094 13.640625 C 22.621094 13.757812 22.621094 13.875 22.625 13.992188 C 22.636719 14.714844 22.597656 15.382812 22.398438 16.089844 C 22.378906 16.089844 22.355469 16.089844 22.332031 16.089844 C 22.332031 15.835938 22.332031 15.582031 22.332031 15.324219 C 22.375 15.324219 22.421875 15.324219 22.46875 15.324219 C 22.46875 15.234375 22.46875 15.234375 22.46875 15.144531 C 22.46875 14.921875 22.464844 14.699219 22.464844 14.476562 C 22.464844 14.382812 22.464844 14.285156 22.464844 14.191406 C 22.460938 13.660156 22.464844 13.136719 22.539062 12.613281 Z M 22.539062 12.613281 "/>
<path style=" stroke:none;fill-rule:nonzero;fill:rgb(38.82353%,38.82353%,40.392157%);fill-opacity:1;" d="M 11.339844 10.960938 C 11.386719 10.960938 11.429688 10.960938 11.476562 10.960938 C 11.414062 11.414062 11.339844 11.863281 11.269531 12.316406 C 11.980469 12.316406 12.691406 12.316406 13.425781 12.316406 C 13.425781 12.335938 13.425781 12.355469 13.425781 12.375 C 12.691406 12.375 11.957031 12.375 11.199219 12.375 C 11.195312 12.21875 11.195312 12.0625 11.191406 11.902344 C 11.191406 11.851562 11.1875 11.804688 11.1875 11.753906 C 11.183594 11.464844 11.230469 11.234375 11.339844 10.960938 Z M 11.339844 10.960938 "/>
<path style=" stroke:none;fill-rule:nonzero;fill:rgb(15.686275%,15.686275%,16.078432%);fill-opacity:1;" d="M 29.21875 3.300781 C 29.242188 3.300781 29.261719 3.300781 29.285156 3.300781 C 29.335938 3.890625 29.140625 4.46875 28.871094 5.007812 C 28.847656 5.007812 28.824219 5.007812 28.800781 5.007812 C 28.78125 4.617188 28.78125 4.617188 28.9375 4.417969 C 28.976562 4.300781 28.976562 4.300781 28.996094 4.171875 C 29.003906 4.125 29.011719 4.078125 29.023438 4.03125 C 29.03125 3.980469 29.039062 3.933594 29.046875 3.882812 C 29.140625 3.367188 29.140625 3.367188 29.21875 3.300781 Z M 29.21875 3.300781 "/>
<path style=" stroke:none;fill-rule:nonzero;fill:rgb(9.411765%,9.411765%,10.196079%);fill-opacity:1;" d="M 20.523438 12.433594 C 21.210938 12.433594 21.898438 12.433594 22.609375 12.433594 C 22.609375 12.472656 22.609375 12.511719 22.609375 12.550781 C 22.402344 12.609375 22.289062 12.617188 22.074219 12.605469 C 22.011719 12.605469 21.949219 12.601562 21.882812 12.597656 C 21.816406 12.59375 21.75 12.59375 21.683594 12.589844 C 21.617188 12.585938 21.550781 12.585938 21.484375 12.582031 C 21.160156 12.566406 20.84375 12.546875 20.523438 12.492188 C 20.523438 12.472656 20.523438 12.453125 20.523438 12.433594 Z M 20.523438 12.433594 "/>
<path style=" stroke:none;fill-rule:nonzero;fill:rgb(38.039216%,38.039216%,38.039216%);fill-opacity:1;" d="M 27.0625 2.476562 C 27.054688 2.609375 27.042969 2.746094 27.035156 2.878906 C 27.03125 2.957031 27.023438 3.03125 27.019531 3.109375 C 26.992188 3.300781 26.992188 3.300781 26.851562 3.417969 C 26.875 3.144531 26.898438 2.875 26.921875 2.59375 C 26.417969 2.59375 25.910156 2.59375 25.390625 2.59375 C 25.390625 2.574219 25.390625 2.554688 25.390625 2.535156 C 25.949219 2.496094 26.5 2.464844 27.0625 2.476562 Z M 27.0625 2.476562 "/>
<path style=" stroke:none;fill-rule:nonzero;fill:rgb(24.313726%,23.529412%,23.921569%);fill-opacity:1;" d="M 4.035156 6.363281 C 4.058594 6.363281 4.082031 6.363281 4.105469 6.363281 C 4.105469 6.929688 4.105469 7.492188 4.105469 8.074219 C 3.894531 7.898438 3.894531 7.898438 3.871094 7.78125 C 3.871094 7.738281 3.871094 7.695312 3.871094 7.648438 C 3.875 7.601562 3.875 7.554688 3.875 7.507812 C 3.875 7.457031 3.875 7.410156 3.878906 7.359375 C 3.878906 7.308594 3.878906 7.261719 3.878906 7.210938 C 3.886719 6.84375 3.886719 6.84375 3.964844 6.777344 C 3.992188 6.640625 4.015625 6.503906 4.035156 6.363281 Z M 4.035156 6.363281 "/>
<path style=" stroke:none;fill-rule:nonzero;fill:rgb(27.450982%,27.058825%,28.627452%);fill-opacity:1;" d="M 4.453125 1.53125 C 4.5 1.53125 4.542969 1.53125 4.589844 1.53125 C 4.550781 1.742188 4.460938 1.839844 4.28125 1.988281 C 4.238281 2.023438 4.195312 2.0625 4.152344 2.097656 C 4.035156 2.179688 4.035156 2.179688 3.894531 2.179688 C 3.894531 2.21875 3.894531 2.257812 3.894531 2.296875 C 3.828125 2.277344 3.757812 2.257812 3.6875 2.238281 C 3.777344 2.152344 3.867188 2.0625 3.957031 1.972656 C 4.03125 1.898438 4.03125 1.898438 4.109375 1.824219 C 4.152344 1.785156 4.199219 1.75 4.242188 1.710938 C 4.289062 1.710938 4.335938 1.710938 4.382812 1.710938 C 4.40625 1.652344 4.429688 1.59375 4.453125 1.53125 Z M 4.453125 1.53125 "/>
<path style=" stroke:none;fill-rule:nonzero;fill:rgb(23.529412%,23.529412%,23.921569%);fill-opacity:1;" d="M 14.398438 6.894531 C 14.398438 6.914062 14.398438 6.933594 14.398438 6.953125 C 14.335938 6.960938 14.269531 6.96875 14.203125 6.976562 C 14.070312 6.992188 14.070312 6.992188 13.9375 7.003906 C 13.8125 7.019531 13.8125 7.019531 13.679688 7.035156 C 13.445312 7.070312 13.234375 7.125 13.007812 7.191406 C 12.773438 7.195312 12.773438 7.195312 12.589844 7.191406 C 13.019531 6.828125 13.839844 6.871094 14.398438 6.894531 Z M 14.398438 6.894531 "/>
<path style=" stroke:none;fill-rule:nonzero;fill:rgb(18.82353%,18.82353%,19.607843%);fill-opacity:1;" d="M 23.722656 6.71875 C 23.699219 6.777344 23.675781 6.835938 23.652344 6.894531 C 23.277344 7.023438 22.867188 7.023438 22.46875 7.011719 C 22.46875 6.972656 22.46875 6.933594 22.46875 6.894531 C 22.652344 6.867188 22.835938 6.835938 23.015625 6.804688 C 23.070312 6.796875 23.121094 6.789062 23.175781 6.78125 C 23.566406 6.71875 23.566406 6.71875 23.722656 6.71875 Z M 23.722656 6.71875 "/>
<path style=" stroke:none;fill-rule:nonzero;fill:rgb(23.529412%,22.745098%,23.529412%);fill-opacity:1;" d="M 18.503906 17.855469 C 18.550781 17.960938 18.550781 17.960938 18.574219 18.09375 C 18.488281 18.207031 18.488281 18.207031 18.371094 18.3125 C 18.332031 18.347656 18.289062 18.386719 18.25 18.421875 C 18.21875 18.449219 18.1875 18.476562 18.15625 18.503906 C 18.132812 18.464844 18.109375 18.425781 18.085938 18.386719 C 17.996094 18.40625 17.902344 18.425781 17.808594 18.445312 C 18.039062 18.25 18.273438 18.054688 18.503906 17.855469 Z M 18.503906 17.855469 "/>
<path style=" stroke:none;fill-rule:nonzero;fill:rgb(32.156864%,30.980393%,32.549021%);fill-opacity:1;" d="M 11.339844 10.960938 C 11.386719 10.960938 11.429688 10.960938 11.476562 10.960938 C 11.4375 11.285156 11.371094 11.589844 11.269531 11.902344 C 11.246094 11.902344 11.222656 11.902344 11.199219 11.902344 C 11.183594 11.5625 11.210938 11.285156 11.339844 10.960938 Z M 11.339844 10.960938 "/>
<path style=" stroke:none;fill-rule:nonzero;fill:rgb(25.490198%,25.490198%,26.274511%);fill-opacity:1;" d="M 7.511719 0.234375 C 7.46875 0.3125 7.421875 0.390625 7.375 0.472656 C 7.3125 0.46875 7.253906 0.46875 7.191406 0.46875 C 6.964844 0.472656 6.761719 0.496094 6.539062 0.53125 C 6.679688 0.410156 6.765625 0.375 6.949219 0.316406 C 7.019531 0.292969 7.019531 0.292969 7.089844 0.269531 C 7.234375 0.234375 7.234375 0.234375 7.511719 0.234375 Z M 7.511719 0.234375 "/>
<path style=" stroke:none;fill-rule:nonzero;fill:rgb(25.882354%,25.882354%,26.274511%);fill-opacity:1;" d="M 19.617188 16.382812 C 19.71875 16.609375 19.648438 16.753906 19.546875 16.972656 C 19.5 16.972656 19.457031 16.972656 19.410156 16.972656 C 19.410156 17.011719 19.410156 17.050781 19.410156 17.089844 C 19.363281 17.089844 19.316406 17.089844 19.269531 17.089844 C 19.378906 16.851562 19.496094 16.617188 19.617188 16.382812 Z M 19.617188 16.382812 "/>
<path style=" stroke:none;fill-rule:nonzero;fill:rgb(26.666668%,26.666668%,26.666668%);fill-opacity:1;" d="M 22.46875 15.203125 C 22.492188 15.203125 22.515625 15.203125 22.539062 15.203125 C 22.503906 15.5 22.460938 15.792969 22.398438 16.089844 C 22.378906 16.089844 22.355469 16.089844 22.332031 16.089844 C 22.332031 15.835938 22.332031 15.582031 22.332031 15.324219 C 22.375 15.324219 22.421875 15.324219 22.46875 15.324219 C 22.46875 15.285156 22.46875 15.246094 22.46875 15.203125 Z M 22.46875 15.203125 "/>
<path style=" stroke:none;fill-rule:nonzero;fill:rgb(8.235294%,7.450981%,8.235294%);fill-opacity:1;" d="M 11.410156 2.179688 C 11.453125 2.21875 11.5 2.257812 11.546875 2.296875 C 11.273438 2.355469 11.042969 2.355469 10.761719 2.332031 C 10.6875 2.324219 10.613281 2.320312 10.535156 2.3125 C 10.480469 2.308594 10.421875 2.304688 10.363281 2.296875 C 10.363281 2.277344 10.363281 2.257812 10.363281 2.238281 C 10.714844 2.199219 11.054688 2.164062 11.410156 2.179688 Z M 11.410156 2.179688 "/>
<path style=" stroke:none;fill-rule:nonzero;fill:rgb(34.117648%,33.725491%,33.725491%);fill-opacity:1;" d="M 8.90625 10.84375 C 8.925781 10.84375 8.949219 10.84375 8.972656 10.84375 C 9 11.523438 9 11.523438 8.835938 11.84375 C 8.8125 11.84375 8.789062 11.84375 8.765625 11.84375 C 8.746094 11.496094 8.8125 11.183594 8.90625 10.84375 Z M 8.90625 10.84375 "/>
<path style=" stroke:none;fill-rule:nonzero;fill:rgb(32.941177%,32.941177%,32.941177%);fill-opacity:1;" d="M 29.078125 4.183594 C 29.164062 4.40625 29.113281 4.480469 29.011719 4.695312 C 28.988281 4.753906 28.960938 4.8125 28.933594 4.875 C 28.910156 4.917969 28.890625 4.964844 28.871094 5.007812 C 28.847656 5.007812 28.824219 5.007812 28.800781 5.007812 C 28.765625 4.648438 28.851562 4.476562 29.078125 4.183594 Z M 29.078125 4.183594 "/>
<path style=" stroke:none;fill-rule:nonzero;fill:rgb(32.549021%,32.156864%,32.549021%);fill-opacity:1;" d="M 7.859375 12.082031 C 8.160156 12.140625 8.457031 12.199219 8.765625 12.257812 C 8.765625 12.277344 8.765625 12.296875 8.765625 12.316406 C 8.464844 12.296875 8.167969 12.277344 7.859375 12.257812 C 7.859375 12.199219 7.859375 12.140625 7.859375 12.082031 Z M 7.859375 12.082031 "/>
<path style=" stroke:none;fill-rule:nonzero;fill:rgb(29.019609%,28.627452%,29.019609%);fill-opacity:1;" d="M 8 27.402344 C 8.09375 27.5625 8.058594 27.648438 8 27.816406 C 7.929688 27.855469 7.863281 27.894531 7.792969 27.933594 C 7.722656 27.914062 7.652344 27.894531 7.582031 27.875 C 7.71875 27.71875 7.859375 27.5625 8 27.402344 Z M 8 27.402344 "/>
<path style=" stroke:none;fill-rule:nonzero;fill:rgb(27.843139%,27.843139%,27.843139%);fill-opacity:1;" d="M 19.199219 17.089844 C 19.222656 17.089844 19.246094 17.089844 19.269531 17.089844 C 19.292969 17.222656 19.292969 17.222656 19.269531 17.386719 C 19.09375 17.519531 19.09375 17.519531 18.921875 17.621094 C 18.921875 17.382812 19.039062 17.277344 19.199219 17.089844 Z M 19.199219 17.089844 "/>
<path style=" stroke:none;fill-rule:nonzero;fill:rgb(18.82353%,18.82353%,19.215687%);fill-opacity:1;" d="M 20.589844 18.800781 C 20.683594 18.839844 20.773438 18.878906 20.871094 18.917969 C 20.824219 18.917969 20.777344 18.917969 20.730469 18.917969 C 20.683594 18.996094 20.636719 19.074219 20.589844 19.152344 C 20.523438 19.152344 20.453125 19.152344 20.382812 19.152344 C 20.382812 19.113281 20.382812 19.074219 20.382812 19.035156 C 20.429688 19.035156 20.472656 19.035156 20.523438 19.035156 C 20.542969 18.957031 20.566406 18.878906 20.589844 18.800781 Z M 20.589844 18.800781 "/>
<path style=" stroke:none;fill-rule:nonzero;fill:rgb(30.19608%,30.19608%,30.588236%);fill-opacity:1;" d="M 6.746094 14.144531 C 7.042969 14.125 7.191406 14.117188 7.4375 14.261719 C 7.488281 14.300781 7.535156 14.339844 7.582031 14.378906 C 7.28125 14.347656 7.023438 14.308594 6.746094 14.203125 C 6.746094 14.183594 6.746094 14.164062 6.746094 14.144531 Z M 6.746094 14.144531 "/>
<path style=" stroke:none;fill-rule:nonzero;fill:rgb(28.627452%,28.627452%,28.627452%);fill-opacity:1;" d="M 28.3125 5.65625 C 28.359375 5.65625 28.40625 5.65625 28.453125 5.65625 C 28.402344 5.875 28.292969 6.050781 28.175781 6.246094 C 28.152344 6.246094 28.128906 6.246094 28.105469 6.246094 C 28.128906 6.109375 28.148438 5.972656 28.175781 5.835938 C 28.21875 5.835938 28.265625 5.835938 28.3125 5.835938 C 28.3125 5.777344 28.3125 5.71875 28.3125 5.65625 Z M 28.3125 5.65625 "/>
<path style=" stroke:none;fill-rule:nonzero;fill:rgb(27.058825%,26.274511%,27.058825%);fill-opacity:1;" d="M 8.140625 2.417969 C 7.894531 2.53125 7.644531 2.589844 7.375 2.652344 C 7.398438 2.59375 7.417969 2.535156 7.445312 2.476562 C 7.667969 2.378906 7.890625 2.414062 8.140625 2.417969 Z M 8.140625 2.417969 "/>
<path style=" stroke:none;fill-rule:nonzero;fill:rgb(32.549021%,32.549021%,32.941177%);fill-opacity:1;" d="M 23.722656 6.71875 C 23.699219 6.777344 23.675781 6.835938 23.652344 6.894531 C 23.421875 6.894531 23.191406 6.894531 22.957031 6.894531 C 22.957031 6.875 22.957031 6.855469 22.957031 6.835938 C 23.058594 6.816406 23.160156 6.796875 23.261719 6.777344 C 23.34375 6.761719 23.34375 6.761719 23.433594 6.742188 C 23.582031 6.71875 23.582031 6.71875 23.722656 6.71875 Z M 23.722656 6.71875 "/>
<path style=" stroke:none;fill-rule:nonzero;fill:rgb(34.901962%,34.117648%,34.509805%);fill-opacity:1;" d="M 4.175781 29.171875 C 4.195312 29.171875 4.21875 29.171875 4.242188 29.171875 C 4.242188 29.289062 4.242188 29.40625 4.242188 29.523438 C 4.335938 29.542969 4.425781 29.5625 4.523438 29.582031 C 4.339844 29.601562 4.15625 29.621094 3.964844 29.644531 C 4.011719 29.605469 4.058594 29.566406 4.105469 29.523438 C 4.132812 29.40625 4.15625 29.289062 4.175781 29.171875 Z M 4.175781 29.171875 "/>
<path style=" stroke:none;fill-rule:nonzero;fill:rgb(26.666668%,26.666668%,26.666668%);fill-opacity:1;" d="M 25.183594 5.894531 C 25.207031 5.933594 25.230469 5.972656 25.253906 6.011719 C 25.136719 6.109375 25.023438 6.207031 24.90625 6.304688 C 24.859375 6.265625 24.8125 6.226562 24.765625 6.1875 C 24.902344 6.089844 25.039062 5.992188 25.183594 5.894531 Z M 25.183594 5.894531 "/>
</g>
</svg>
